2014014_C4_04_grf
version=1
nRows=34
nColumns=19
inDegrees=no
endheader
time	ground_force_1_vx	ground_force_1_vy	ground_force_1_vz	ground_force_1_px	ground_force_1_py	ground_force_1_pz	ground_force_1_mx	ground_force_1_my	ground_force_1_mz	ground_force_2_vx	ground_force_2_vy	ground_force_2_vz	ground_force_2_px	ground_force_2_py	ground_force_2_pz	ground_force_2_mx	ground_force_2_my	ground_force_2_mz
      0.89000000	      0.00000000	      0.00000000	      0.00000000	      0.00000000	      0.00000000	      0.00000000	      0.00000000	      0.00000000	      0.00000000	    -22.30674587	    774.32788908	    -33.26863162	      0.85433708	     -0.00200000	     -0.15400250	     -0.00000000	      2.32878927	      0.00000000
      0.89100000	      0.00000000	      0.00000000	      0.00000000	      0.00000000	      0.00000000	      0.00000000	      0.00000000	      0.00000000	      0.00000000	    -21.98131848	    772.78979123	    -33.20993222	      0.85479891	     -0.00200000	     -0.15390259	     -0.00000000	      2.35362755	      0.00000000
      0.89200000	      0.00000000	      0.00000000	      0.00000000	      0.00000000	      0.00000000	      0.00000000	      0.00000000	      0.00000000	      0.00000000	    -21.65800519	    771.27978206	    -33.15214030	      0.85526199	     -0.00200000	     -0.15380336	     -0.00000000	      2.37843324	      0.00000000
      0.89300000	      0.00000000	      0.00000000	      0.00000000	      0.00000000	      0.00000000	      0.00000000	      0.00000000	      0.00000000	      0.00000000	    -21.33726515	    769.80538666	    -33.09558444	      0.85572654	     -0.00200000	     -0.15370496	     -0.00000000	      2.40316808	      0.00000000
      0.89400000	      0.00000000	      0.00000000	      0.00000000	      0.00000000	      0.00000000	      0.00000000	      0.00000000	      0.00000000	      0.00000000	    -21.01852559	    768.35989952	    -33.04009251	      0.85619218	     -0.00200000	     -0.15360723	      0.00000000	      2.42782412	      0.00000000
      0.89500000	      0.00000000	      0.00000000	      0.00000000	      0.00000000	      0.00000000	      0.00000000	      0.00000000	      0.00000000	      0.00000000	    -20.70221864	    766.95106924	    -32.98602439	      0.85665914	     -0.00200000	     -0.15351033	      0.00000000	      2.45235339	      0.00000000
      0.89600000	      0.00000000	      0.00000000	      0.00000000	      0.00000000	      0.00000000	      0.00000000	      0.00000000	      0.00000000	      0.00000000	    -20.38781345	    765.57204127	    -32.93317929	      0.85712707	     -0.00200000	     -0.15341408	      0.00000000	      2.47676187	      0.00000000
      0.89700000	      0.00000000	      0.00000000	      0.00000000	      0.00000000	      0.00000000	      0.00000000	      0.00000000	      0.00000000	      0.00000000	    -20.07573843	    764.23097402	    -32.88197573	      0.85759614	     -0.00200000	     -0.15331869	      0.00000000	      2.50099642	      0.00000000
      0.89800000	      0.00000000	      0.00000000	      0.00000000	      0.00000000	      0.00000000	      0.00000000	      0.00000000	      0.00000000	      0.00000000	    -19.76550184	    762.92075217	    -32.83217512	      0.85806609	     -0.00200000	     -0.15322399	     -0.00000000	      2.52507697	      0.00000000
      0.89900000	      0.00000000	      0.00000000	      0.00000000	      0.00000000	      0.00000000	      0.00000000	      0.00000000	      0.00000000	      0.00000000	    -19.45753582	    761.64960861	    -32.78425336	      0.85853707	     -0.00200000	     -0.15313016	      0.00000000	      2.54894355	      0.00000000
      0.90000000	      0.00000000	      0.00000000	      0.00000000	      0.00000000	      0.00000000	      0.00000000	      0.00000000	      0.00000000	      0.00000000	    -19.15136725	    760.41020453	    -32.73792751	      0.85900883	     -0.00200000	     -0.15303705	      0.00000000	      2.57262296	      0.00000000
      0.90100000	      0.00000000	      0.00000000	      0.00000000	      0.00000000	      0.00000000	      0.00000000	      0.00000000	      0.00000000	      0.00000000	    -18.84743199	    759.21099633	    -32.69371781	      0.85948152	     -0.00200000	     -0.15294485	      0.00000000	      2.59604937	      0.00000000
      0.90200000	      0.00000000	      0.00000000	      0.00000000	      0.00000000	      0.00000000	      0.00000000	      0.00000000	      0.00000000	      0.00000000	    -18.54527369	    758.04434717	    -32.65130743	      0.85995491	     -0.00200000	     -0.15285337	      0.00000000	      2.61925825	      0.00000000
      0.90300000	      0.00000000	      0.00000000	      0.00000000	      0.00000000	      0.00000000	      0.00000000	      0.00000000	      0.00000000	      0.00000000	    -18.24533008	    756.91882521	    -32.61126224	      0.86042909	     -0.00200000	     -0.15276279	      0.00000000	      2.64217879	      0.00000000
      0.90400000	      0.00000000	      0.00000000	      0.00000000	      0.00000000	      0.00000000	      0.00000000	      0.00000000	      0.00000000	      0.00000000	    -17.94715784	    755.82645833	    -32.57320412	      0.86090392	     -0.00200000	     -0.15267291	      0.00000000	      2.66485371	      0.00000000
      0.90500000	      0.00000000	      0.00000000	      0.00000000	      0.00000000	      0.00000000	      0.00000000	      0.00000000	      0.00000000	      0.00000000	    -17.65119191	    754.77603823	    -32.53771197	      0.86137948	     -0.00200000	     -0.15258391	     -0.00000000	      2.68720486	      0.00000000
      0.90600000	      0.00000000	      0.00000000	      0.00000000	      0.00000000	      0.00000000	      0.00000000	      0.00000000	      0.00000000	      0.00000000	    -17.35698991	    753.75936925	    -32.50433467	      0.86185560	     -0.00200000	     -0.15249560	     -0.00000000	      2.70928567	      0.00000000
      0.90700000	      0.00000000	      0.00000000	      0.00000000	      0.00000000	      0.00000000	      0.00000000	      0.00000000	      0.00000000	      0.00000000	    -17.06498489	    752.78524309	    -32.47366287	      0.86233239	     -0.00200000	     -0.15240815	      0.00000000	      2.73101757	      0.00000000
      0.90800000	      0.00000000	      0.00000000	      0.00000000	      0.00000000	      0.00000000	      0.00000000	      0.00000000	      0.00000000	      0.00000000	    -16.77473634	    751.84538960	    -32.44520240	      0.86280970	     -0.00200000	     -0.15232137	      0.00000000	      2.75246359	      0.00000000
      0.90900000	      0.00000000	      0.00000000	      0.00000000	      0.00000000	      0.00000000	      0.00000000	      0.00000000	      0.00000000	      0.00000000	    -16.48666803	    750.94878674	    -32.41955042	      0.86328762	     -0.00200000	     -0.15223545	      0.00000000	      2.77354410	      0.00000000
      0.91000000	      0.00000000	      0.00000000	      0.00000000	      0.00000000	      0.00000000	      0.00000000	      0.00000000	      0.00000000	      0.00000000	    -16.20033570	    750.08705258	    -32.39618018	      0.86376600	     -0.00200000	     -0.15215021	      0.00000000	      2.79432629	      0.00000000
      0.91100000	      0.00000000	      0.00000000	      0.00000000	      0.00000000	      0.00000000	      0.00000000	      0.00000000	      0.00000000	      0.00000000	    -15.91616124	    749.26912785	    -32.37569537	      0.86424492	     -0.00200000	     -0.15206580	      0.00000000	      2.81473138	      0.00000000
      0.91200000	      0.00000000	      0.00000000	      0.00000000	      0.00000000	      0.00000000	      0.00000000	      0.00000000	      0.00000000	      0.00000000	    -15.63370600	    748.48666787	    -32.35754967	      0.86472424	     -0.00200000	     -0.15198208	      0.00000000	      2.83483289	      0.00000000
      0.91300000	      0.00000000	      0.00000000	      0.00000000	      0.00000000	      0.00000000	      0.00000000	      0.00000000	      0.00000000	      0.00000000	    -15.35339514	    747.74868786	    -32.34236110	      0.86520401	     -0.00200000	     -0.15189920	      0.00000000	      2.85455596	      0.00000000
      0.91400000	      0.00000000	      0.00000000	      0.00000000	      0.00000000	      0.00000000	      0.00000000	      0.00000000	      0.00000000	      0.00000000	    -15.07480349	    747.04654515	    -32.32957684	      0.86568410	     -0.00200000	     -0.15181699	     -0.00000000	      2.87397904	      0.00000000
      0.91500000	      0.00000000	      0.00000000	      0.00000000	      0.00000000	      0.00000000	      0.00000000	      0.00000000	      0.00000000	      0.00000000	    -14.79836926	    746.38955295	    -32.31983446	      0.86616452	     -0.00200000	     -0.15173562	      0.00000000	      2.89303363	      0.00000000
      0.91600000	      0.00000000	      0.00000000	      0.00000000	      0.00000000	      0.00000000	      0.00000000	      0.00000000	      0.00000000	      0.00000000	    -14.52366542	    745.76899409	    -32.31255896	      0.86664516	     -0.00200000	     -0.15165493	     -0.00000000	      2.91179843	      0.00000000
      0.91700000	      0.00000000	      0.00000000	      0.00000000	      0.00000000	      0.00000000	      0.00000000	      0.00000000	      0.00000000	      0.00000000	    -14.25112411	    745.19433081	    -32.30838533	      0.86712596	     -0.00200000	     -0.15157509	      0.00000000	      2.93021027	      0.00000000
      0.91800000	      0.00000000	      0.00000000	      0.00000000	      0.00000000	      0.00000000	      0.00000000	      0.00000000	      0.00000000	      0.00000000	    -13.98030203	    744.65654790	    -32.30669424	      0.86760687	     -0.00200000	     -0.15149591	      0.00000000	      2.94834715	      0.00000000
      0.91900000	      0.00000000	      0.00000000	      0.00000000	      0.00000000	      0.00000000	      0.00000000	      0.00000000	      0.00000000	      0.00000000	    -13.71160103	    744.16521937	    -32.30809588	      0.86808780	     -0.00200000	     -0.15141757	      0.00000000	      2.96615111	      0.00000000
      0.92000000	      0.00000000	      0.00000000	      0.00000000	      0.00000000	      0.00000000	      0.00000000	      0.00000000	      0.00000000	      0.00000000	    -13.44456803	    743.71114373	    -32.31195398	      0.86856871	     -0.00200000	     -0.15133988	      0.00000000	      2.98369724	      0.00000000
      0.92100000	      0.00000000	      0.00000000	      0.00000000	      0.00000000	      0.00000000	      0.00000000	      0.00000000	      0.00000000	      0.00000000	    -13.17958347	    743.30396950	    -32.31885135	      0.86904951	     -0.00200000	     -0.15126300	     -0.00000000	      3.00093460	      0.00000000
      0.92200000	      0.00000000	      0.00000000	      0.00000000	      0.00000000	      0.00000000	      0.00000000	      0.00000000	      0.00000000	      0.00000000	    -12.91620918	    742.93434620	    -32.32815303	      0.86953018	     -0.00200000	     -0.15118676	      0.00000000	      3.01793684	      0.00000000
      0.92300000	      0.00000000	      0.00000000	      0.00000000	      0.00000000	      0.00000000	      0.00000000	      0.00000000	      0.00000000	      0.00000000	    -12.65480649	    742.61173606	    -32.34042488	      0.87001066	     -0.00200000	     -0.15111134	     -0.00000000	      3.03465774	      0.00000000
